<svg width="592" height="165" viewBox="0 0 592 165" fill="none" xmlns="http://www.w3.org/2000/svg">
<path fill-rule="evenodd" clip-rule="evenodd" d="M52.342 1.95801C51.579 6.05801 50.465 7.56701 44.009 13.264C41.329 15.628 40.276 17.208 39.219 20.452C38.539 22.539 38.424 23.428 38.429 26.558C38.445 35.938 42.961 43.06 49.307 43.715C50.223 43.81 51.362 43.785 51.839 43.66C52.647 43.448 52.58 43.396 50.874 42.912C48.206 42.154 46.77 41.316 45.121 39.552C42.266 36.502 41.115 32.77 41.109 26.558C41.102 19.881 41.899 18.058 47.043 12.983C49.684 10.376 50.823 9.01201 51.428 7.72801C52.448 5.56501 52.923 3.40401 52.8 1.48401L52.706 0.00300598L52.342 1.95801ZM65.402 4.45501C57.542 9.70401 55.234 22.485 60.914 29.305L61.676 30.222L60.933 28.152C58.9 22.494 59.513 14.705 62.429 9.15601C62.958 8.14901 64.314 6.39701 65.441 5.26401C66.569 4.13001 67.443 3.20401 67.384 3.20401C67.325 3.20401 66.433 3.76601 65.402 4.45501ZM69.802 4.84001C68.292 5.56501 66.616 6.57101 66.08 7.07601C64.888 8.20001 64.497 9.47601 65.145 10.126C65.555 10.535 65.701 10.535 66.482 10.124C67.377 9.65301 73.256 3.50401 72.8 3.51401C72.663 3.51801 71.313 4.11401 69.802 4.84001ZM80.335 4.42001C79.075 4.75401 76.75 5.66501 75.168 6.44501C69.204 9.38201 65.132 14.868 63.976 21.521C63.339 25.188 63.552 29.43 64.574 33.461C65.449 36.91 66.504 39.097 69.194 43.035C70.286 44.635 71.144 45.943 71.102 45.94C71.059 45.938 70.152 45.663 69.086 45.33C64.533 43.902 61.267 44.192 53.469 46.717C47.082 48.784 46.576 48.911 43.181 49.294C36.383 50.06 31.794 47.931 29.389 42.892C28.677 41.399 28.589 40.855 28.603 38.007C28.617 35.213 28.727 34.547 29.46 32.817C29.922 31.725 30.385 30.627 30.488 30.374C30.618 30.057 30.469 30.098 30.001 30.509C29.63 30.835 28.817 32.133 28.194 33.393C27.076 35.653 27.061 35.734 27.061 39.364C27.061 42.779 27.124 43.182 27.945 44.959C29.11 47.482 31.969 50.203 34.415 51.119C37.183 52.154 38.845 52.403 42.302 52.299C44.079 52.246 45.498 52.276 45.456 52.366C45.321 52.65 43.001 56.274 41.105 59.161C38.07 63.783 34.722 65.958 30.099 66.313C26.304 66.604 22.576 65.116 19.319 62.009L17.359 60.141L18.201 61.515C20.759 65.688 24.862 67.929 29.933 67.922C36.285 67.913 40.35 65.369 45.173 58.386C46.385 56.631 47.93 54.75 48.606 54.207C50.328 52.823 54.471 50.69 56.832 49.972C65.223 47.419 72.585 50.793 73.914 57.801C74.22 59.411 73.881 62.285 73.247 63.471C72.956 64.014 72.906 63.993 72.548 63.167C70.963 59.51 65.566 56.847 60.758 57.349C56.931 57.749 53.49 59.651 48.707 64.01C46.103 66.383 44.754 67.355 42.507 68.476L39.634 69.91L35.026 69.895C31.435 69.883 30.123 69.765 29.074 69.357C26.851 68.494 27.268 69.057 29.711 70.218C33.225 71.887 37.541 72.158 41.866 70.983C44.479 70.273 45.565 69.588 50.941 65.265C54.446 62.445 56.276 61.416 59.041 60.708C62.651 59.783 65.715 60.584 67.929 63.035C69.364 64.624 69.649 65.386 69.649 67.635C69.649 69.852 69.134 71.206 66.842 75.003C65.86 76.629 64.656 78.827 64.164 79.888C62.994 82.418 62.224 86.341 62.376 89.018C62.442 90.178 62.383 91.128 62.246 91.128C61.648 91.128 58.696 89.412 56.851 87.993C54.585 86.249 51.586 84.773 48.431 83.847C42.074 81.981 36.621 82.168 28.15 84.544C21.395 86.438 18.35 86.618 14.932 85.326C11.857 84.165 8.25901 80.891 6.66201 77.804C6.22301 76.954 6.22501 76.834 6.68401 76.374C7.56901 75.489 7.22301 73.994 5.26401 70.251L3.40001 66.69V70.589C3.40001 74.924 3.86001 76.539 5.14501 76.722C5.64601 76.793 5.87301 77.092 6.02001 77.874C6.28801 79.301 8.28001 82.316 10.121 84.082C14.142 87.937 20.249 89.247 27.213 87.747C36.851 85.671 37.446 85.574 39.73 85.707C42.676 85.877 44.468 86.662 48.27 89.442L51.254 91.624L48.794 91.983C46.982 92.247 45.571 92.713 43.424 93.758C40.941 94.966 40.104 95.584 37.743 97.959C34.543 101.177 33.231 103.444 31.183 109.292C28.883 115.858 26.876 118.745 23.437 120.438C21.742 121.273 21.232 121.376 18.801 121.377C12.586 121.38 8.00901 118.136 5.67501 112.077C4.79201 109.782 4.71301 110.217 5.53201 112.869C7.54401 119.383 13.355 123.457 20.161 123.126C26.741 122.806 30.531 119.051 33.931 109.481C35.605 104.77 39.1 100.114 42.654 97.859C46.027 95.719 51.301 95.009 55.564 96.121C59.918 97.257 64.952 100.681 67.804 104.448C69.432 106.6 69.682 107.199 68.809 106.86C67.373 106.302 64.622 106.033 61.864 106.179C51.572 106.724 44.245 113.329 42.794 123.367C41.904 129.523 42.991 134.395 45.944 137.481C48.507 140.16 51.253 140.826 55.016 139.683C56.95 139.096 57.48 138.764 59.108 137.125C60.703 135.519 61.171 134.772 62.296 132.037C64.104 127.642 64.676 126.553 65.789 125.37C67.508 123.544 70.787 122.317 72.892 122.712L74.009 122.922L73.836 126.792C73.635 131.33 72.938 134.301 71.216 137.977C68.142 144.536 63.614 149.074 56.796 152.429C53.189 154.204 49.971 155.093 45.988 155.412C43.285 155.629 43.258 155.638 44.352 156.019C46.457 156.751 50.096 157.161 52.962 156.991C55.484 156.84 57.823 156.259 60.642 155.085C61.235 154.838 61.237 154.848 60.702 155.459C59.878 156.399 56.83 157.927 54.801 158.419C53.035 158.846 53.027 158.853 54.231 158.9C54.903 158.927 55.727 159.002 56.063 159.065C56.399 159.129 58.003 159.045 59.627 158.88C64.042 158.43 67.571 157.147 70.157 155.05C70.857 154.482 71.493 154.018 71.57 154.018C71.926 154.018 72.06 156.055 71.773 157.116C71.321 158.796 69.891 160.278 67.716 161.322L65.841 162.222L67.211 162.058C71.984 161.485 75.275 160.036 77.875 157.364L79.539 155.654L80.478 156.897C81.738 158.563 84.81 160.584 87.216 161.327C89.65 162.079 94.355 162.48 95.172 162.005C95.698 161.7 95.674 161.668 94.923 161.659C91.776 161.624 87.509 158.283 86.595 155.139C86.32 154.194 86.138 153.003 86.191 152.494L86.287 151.568L87.814 152.678C89.876 154.178 93.741 155.982 96.52 156.743C100.802 157.915 106.448 158.11 110.405 157.223C111.596 156.955 116.053 155.521 116.053 155.405C116.053 155.355 114.566 155.308 112.749 155.3C110.931 155.292 108.571 155.127 107.503 154.933C100.96 153.747 95.543 149.675 92.682 143.791C90.912 140.151 90.109 136.761 89.897 132.037L89.727 128.22L90.523 127.483C91.099 126.949 91.764 126.711 92.925 126.623C95.431 126.433 96.827 127.319 99.415 130.74C100.59 132.294 102.212 134.034 103.019 134.606C104.705 135.803 105.986 136.154 110.863 136.752C112.794 136.989 114.615 137.276 114.909 137.39C115.202 137.504 115.443 137.517 115.443 137.418C115.443 136.976 112.726 135.928 109.768 135.229C104.25 133.925 103.49 133.412 100.472 128.949C99.288 127.199 98.217 126.006 97.27 125.379C95.658 124.311 93.006 123.652 91.262 123.886L90.086 124.043L90.269 122.926C90.369 122.312 90.714 120.905 91.034 119.799C93.084 112.725 101.857 111.334 109.853 116.815C110.556 117.297 112.315 118.788 113.763 120.129C120.023 125.929 124.042 127.753 130.555 127.753C132.235 127.753 134.487 127.546 135.561 127.293C140.065 126.231 144.271 123.068 145.979 119.456C147.219 116.834 147.125 116.254 145.819 118.469C144.445 120.796 141.789 123.23 139.201 124.535C134.475 126.917 128.349 126.688 122.539 123.912C120.705 123.035 119.516 122.076 115.617 118.329C111.597 114.464 110.519 113.603 108.216 112.417C104.393 110.448 101.524 109.637 98.302 109.615C96.85 109.605 95.727 109.491 95.805 109.362C95.885 109.232 96.733 108.73 97.692 108.246C103.261 105.434 110.681 104.909 116.702 106.899C119.094 107.689 120.746 108.593 126.48 112.246C134.775 117.53 144.49 116.695 151.275 110.114C155.113 106.394 157.908 100.477 157.862 96.177L157.846 94.638L157.286 96.388C156.491 98.877 154.407 102.843 152.638 105.234C147.409 112.304 140.491 114.951 133.552 112.536C131.162 111.704 130.29 111.185 123.686 106.663C118.867 103.364 113.853 101.627 108.186 101.293L105.049 101.109L106.511 100.274C108.732 99.006 110.998 96.818 113.465 93.561C116.045 90.153 117.092 89.193 119.412 88.105C121.688 87.037 125.997 86.997 128.595 88.019C130.698 88.847 132.652 90.483 133.532 92.152C134.456 93.905 134.445 96.91 133.507 98.78C133.12 99.553 133.039 99.871 133.318 99.523C135.396 96.933 135.728 93.622 134.21 90.648C133.081 88.437 130.477 86.332 127.847 85.505C125.415 84.74 121.355 84.773 119.074 85.577C115.958 86.674 114.403 87.906 111.182 91.828C108.37 95.253 106.648 96.6 102.643 98.505C94.173 102.533 94.369 102.418 92.12 104.672C88.982 107.817 87.412 110.805 85.92 116.467L85.64 117.535L85.122 116.002C84.156 113.136 83.702 110.215 83.702 106.85C83.701 102.903 84.242 100.297 85.582 97.782C86.969 95.179 88.484 93.601 92.842 90.218C94.972 88.565 97.378 86.479 98.19 85.583C100.55 82.974 102.924 79.079 104.278 75.589C105.528 72.369 105.545 72.344 107.444 71.092C111.301 68.548 116.971 67.372 122.734 67.922C132.534 68.855 142.764 73.166 147.829 78.496C151.009 81.844 152.365 84.879 152.409 88.751L152.433 90.974L153.011 89.754C153.723 88.248 153.791 85.145 153.156 83.01C151.664 77.986 146.455 72.855 139.656 69.712C129.186 64.872 118.038 63.682 109.58 66.502L106.617 67.489L107.747 65.388C112.21 57.098 120.757 52.833 129.283 54.639C132.877 55.401 135.382 56.853 136.897 59.053C137.711 60.235 137.769 59.643 137.002 57.99C136.146 56.147 134.43 54.548 132.153 53.47C129.605 52.265 127.65 51.95 123.848 52.13C120.031 52.312 116.908 53.173 113.632 54.947C112.552 55.532 111.628 55.969 111.578 55.918C111.527 55.868 112.204 54.736 113.082 53.404C116.178 48.709 120.056 45.729 124.64 44.522C127.523 43.762 132.198 43.846 134.424 44.698C137.687 45.944 139.761 48.796 140.49 53.042C141.09 56.523 140.158 60.174 137.728 63.87L136.768 65.33L138.298 63.726C144.548 57.177 143.22 46.366 135.734 42.845C133.208 41.657 130.824 41.272 127.044 41.443C120.037 41.76 114.535 45.334 109.755 52.676C107.155 56.671 104.115 60.903 103.848 60.903C103.738 60.903 103.404 60.113 103.105 59.147C102.202 56.227 100.638 53.797 97.423 50.322C92.856 45.385 91.285 41.658 91.783 36.937C92.328 31.758 94.6 27.42 99.003 23.151C103.938 18.366 110.175 16.013 116.781 16.446C121.989 16.787 126.446 18.17 130.708 20.765L132.998 22.159L131.623 20.945C128.711 18.37 123.949 16.085 119.737 15.241C116.252 14.543 110.68 14.764 107.657 15.72C101.586 17.64 96.597 21.425 93.049 26.803C90.204 31.113 89.111 34.388 89.103 38.616C89.096 43.262 90.558 47.037 94.07 51.439C97.719 56.011 98.763 58.978 98.748 64.719C98.73 70.968 97.128 75.28 93.473 78.915C91.472 80.905 88.617 82.59 86.496 83.035L85.484 83.247L87.644 80.394C90.146 77.092 92.862 71.829 93.765 68.535C95.771 61.218 94.329 54.701 89.671 50.036C87.855 48.218 86.935 47.591 83.935 46.13C79.794 44.113 78.094 42.641 76.823 39.975C76.083 38.425 75.936 37.676 75.816 34.865C75.739 33.055 75.603 31.645 75.516 31.732C75.426 31.821 75.185 32.799 74.976 33.908C73.857 39.862 76.576 44.836 82.688 48.016C88.918 51.256 91.636 55.336 91.625 61.427C91.615 67.626 89.537 72.537 83.969 79.526C78.969 85.803 77.608 88.198 76.773 92.189C76.528 93.36 76.27 94.378 76.198 94.449C75.97 94.676 74.626 91.343 74.268 89.662C74.078 88.772 73.923 86.83 73.923 85.346C73.923 81.902 74.76 78.943 77.402 73.046C80.125 66.966 80.471 65.58 80.468 60.75C80.466 57.11 80.388 56.565 79.537 54.157C78.271 50.583 76.942 48.304 73.118 43.155C67.882 36.105 66.288 32.001 66.293 25.581C66.298 17.584 69.468 11.47 75.293 8.22501C79.718 5.76001 85.753 4.71501 91.952 5.34101C93.976 5.54501 95.7 5.64501 95.782 5.56301C95.864 5.48101 94.792 5.09701 93.399 4.71101C89.773 3.70601 83.552 3.56701 80.335 4.42001ZM98.957 6.44601C94.185 8.00201 92.546 9.05901 92.546 10.581C92.546 11.241 92.722 11.478 93.329 11.63C93.759 11.738 94.361 11.706 94.667 11.56C95.353 11.23 100.971 5.94001 100.599 5.97401C100.452 5.98701 99.713 6.20001 98.957 6.44601ZM79.772 7.80301C79.378 7.96101 78.987 8.35401 78.902 8.67801C78.813 9.01801 78.573 9.19901 78.332 9.10801C77.729 8.87601 74.846 10.275 73.51 11.448C72.446 12.383 70.565 14.817 70.565 15.26C70.565 15.366 71.315 14.793 72.229 13.986C73.145 13.179 75.009 11.881 76.373 11.101C78.603 9.82601 78.941 9.71801 79.74 10.019C80.401 10.269 81.075 10.255 82.389 9.96301C83.359 9.74801 84.941 9.41301 85.907 9.21801C86.872 9.02401 87.662 8.78101 87.662 8.67801C87.662 8.57701 86.715 8.26501 85.558 7.98501C83.255 7.43001 80.89 7.35501 79.772 7.80301ZM56.827 8.87601C54.092 10.43 51.932 13.328 52.403 14.813C52.761 15.94 53.459 15.419 54.563 13.202C55.17 11.984 56.3 10.336 57.075 9.53801C57.849 8.74001 58.42 8.08901 58.342 8.09201C58.265 8.09401 57.582 8.44701 56.827 8.87601ZM100.236 10.255C96.391 10.909 92.681 13.754 91.008 17.33C90.036 19.408 89.192 22.807 89.21 24.574C89.219 25.412 89.384 25.091 89.976 23.088C91.094 19.304 92.174 17.308 94.222 15.236C96.348 13.085 98.897 11.741 102.51 10.868C104.047 10.497 104.581 10.275 103.995 10.252C103.492 10.232 102.805 10.163 102.469 10.097C102.133 10.032 101.129 10.103 100.236 10.255ZM64.233 11.227C62.777 12.817 61.561 16.31 61.286 19.689C61.141 21.481 61.156 21.555 61.444 20.452C62.239 17.4 63.09 15.094 64.171 13.057C65.351 10.833 65.381 9.97401 64.233 11.227ZM50.263 12.7C46.287 15.91 44.615 18.093 44.615 20.073C44.615 21.321 45.076 21.825 46.217 21.825C47.599 21.825 48.399 20.705 49.611 17.065C50.225 15.222 51.075 13.204 51.499 12.58C52.484 11.13 52.169 11.16 50.263 12.7ZM89.714 13C86.779 16.046 85.184 20.989 85.831 25.038C86.151 27.036 87.07 29.822 87.692 30.678C87.96 31.048 87.982 31.018 87.805 30.526C87.392 29.381 87.27 22.035 87.635 20.278C88.116 17.958 89.45 15.244 90.972 13.485C91.67 12.679 92.242 11.89 92.242 11.732C92.242 11.002 91.078 11.586 89.714 13ZM37.334 14.422C32.395 19.298 31.124 25.918 33.972 31.938C34.868 33.833 36.914 36.65 37.192 36.372C37.27 36.294 36.99 35.702 36.569 35.057C34.808 32.359 33.755 27.006 34.239 23.199C34.696 19.589 35.595 17.548 38.103 14.422C39.013 13.288 39.682 12.361 39.589 12.361C39.497 12.361 38.482 13.288 37.334 14.421M76.287 13.784C75.614 14.064 75.068 14.53 74.967 14.914C74.872 15.273 74.282 15.924 73.654 16.362C70.212 18.762 68.353 24.827 69.461 30.039C69.901 32.107 71.638 36.432 71.913 36.143C71.977 36.076 71.761 34.991 71.434 33.732C69.786 27.383 70.694 21.905 74.063 17.872C74.899 16.872 75.403 16.537 76.148 16.49C76.688 16.456 77.685 16.142 78.365 15.793C79.045 15.445 80.143 15.062 80.807 14.943C82.842 14.576 82.931 14.335 81.236 13.788C79.295 13.161 77.793 13.16 76.287 13.784ZM102.807 14.047C100.514 14.677 97.75 16.159 96.004 17.695C94.562 18.963 91.936 22.437 91.936 23.075C91.936 23.221 92.806 22.471 93.867 21.409C97.116 18.161 101.581 15.511 106.005 14.207L107.965 13.629L106.132 13.633C105.125 13.635 103.629 13.821 102.807 14.047ZM82.781 16.711C79.788 21.898 80.057 28.213 83.437 32.062C84.561 33.342 86.51 34.419 87.457 34.284C88.04 34.201 87.984 34.109 86.993 33.524C85.482 32.63 83.86 30.35 83.017 27.931C82.029 25.096 82.089 20.768 83.163 17.475C83.587 16.174 83.883 15.109 83.82 15.109C83.757 15.109 83.291 15.83 82.781 16.711ZM54.674 18.451C54.132 20.234 54.033 21.184 54.133 23.597C54.24 26.17 54.391 26.849 55.29 28.788C56.168 30.683 56.898 31.595 57.54 31.595C57.618 31.595 57.147 30.044 56.493 28.148C55.157 24.276 54.766 21.206 55.243 18.314C55.408 17.307 55.497 16.434 55.441 16.374C55.384 16.314 55.039 17.249 54.674 18.451ZM36.834 19.266C35.703 23.153 35.444 27.606 36.167 30.679C37.002 34.227 37.163 33.587 37.143 26.789C37.133 23.135 37.218 19.597 37.333 18.925C37.641 17.115 37.413 17.27 36.833 19.265M77.245 18.849C74.333 21.23 72.671 25.442 72.734 30.281C72.768 32.899 72.674 33.058 73.944 28.236C74.737 25.224 76.928 20.786 78.511 18.989C80.131 17.149 79.421 17.069 77.245 18.849ZM50.676 18.84C48.717 21.486 47.667 24.258 47.67 26.776C47.672 28.289 47.697 28.342 48.07 27.626C48.29 27.206 48.966 26.14 49.573 25.257C50.397 24.06 50.729 23.205 50.879 21.899C50.989 20.935 51.201 19.673 51.349 19.095C51.709 17.697 51.564 17.641 50.676 18.84ZM111.322 18.638C107.949 19.298 103.47 21.681 100.651 24.314C98.345 26.467 96.495 28.856 95.487 30.984C95.208 31.572 95.154 31.792 95.367 31.473C96.715 29.446 99.548 26.225 101.032 25.03C104.591 22.165 109.359 20.33 114.58 19.815L116.619 19.614L117.787 20.834C118.835 21.93 119.19 22.094 121.244 22.428C122.504 22.634 124.623 23.063 125.952 23.381C127.282 23.699 128.414 23.916 128.466 23.864C128.519 23.811 126.983 22.718 125.053 21.434C121.218 18.882 119.477 18.201 118.101 18.716C117.459 18.956 116.989 18.926 116.203 18.598C114.956 18.077 114.149 18.084 111.322 18.638ZM29.926 20.377C28.284 21.395 27.11 22.471 25.876 24.088C24.073 26.45 24.483 29.152 26.646 29.152C28.05 29.152 28.469 28.532 28.748 26.042C29.048 23.364 29.662 21.713 30.798 20.528C31.771 19.511 31.418 19.45 29.926 20.377ZM44.353 22.665C43.967 23.393 43.065 26.482 43.199 26.617C43.287 26.704 44.395 24.357 45.138 22.512C45.374 21.924 44.674 22.06 44.353 22.665ZM112.696 22.345C112.276 22.423 111.824 22.591 111.691 22.719C111.558 22.846 113.962 23.8 117.034 24.839C124.279 27.292 124.024 27.225 123.076 26.411C119.88 23.664 115.276 21.861 112.696 22.345ZM51.518 25.36C50.63 28.176 50.424 30.093 50.889 31.214C51.701 33.17 53.774 32.114 53.774 29.744C53.774 29.137 53.387 27.521 52.913 26.154L52.051 23.667L51.518 25.36ZM106.354 24.637C101.502 25.357 96.92 30.169 95.802 35.717C95.654 36.453 95.734 36.378 96.205 35.34C97.082 33.409 99.003 30.712 100.677 29.062C103.258 26.518 107.437 24.947 110.559 25.347C111.645 25.486 111.819 25.451 111.391 25.181C110.53 24.639 108.106 24.377 106.354 24.637ZM121.723 28.707C115.003 30.405 109.936 35.447 108.42 41.941C108.018 43.659 108.154 46.739 108.69 48.081C108.96 48.76 108.996 48.688 109.013 47.436C109.047 44.966 109.605 42.808 110.882 40.212C112.992 35.919 116.756 32.707 121.55 31.112C123.759 30.376 128.57 30.364 131.32 31.087C135.736 32.248 141.715 35.954 144.499 39.255C145.196 40.081 145.826 40.698 145.899 40.625C145.972 40.552 145.574 39.624 145.014 38.562C142.856 34.475 138.123 30.86 132.693 29.152C129.885 28.27 124.343 28.044 121.723 28.707ZM78.517 29.481C78.501 30.737 79.344 33.427 79.753 33.427C80.143 33.427 80.113 33.247 79.276 30.68C78.634 28.708 78.529 28.541 78.516 29.48M104.133 28.95C102.319 29.45 100.838 30.396 99.797 31.717C98.771 33.022 98.73 33.342 99.669 32.727C101.089 31.797 103.596 31.29 106.787 31.29C110.051 31.29 112.475 30.688 113.92 29.517C114.537 29.017 114.5 29.001 112.788 29.001C111.814 29.001 109.781 28.903 108.269 28.784C106.382 28.634 105.087 28.687 104.133 28.95ZM45.377 30.146C43.001 32.19 45.037 37.781 49.109 40.394C50.928 41.561 51.196 41.603 50.55 40.616C49.754 39.402 49.191 37.14 48.88 33.907C48.645 31.466 48.459 30.738 47.922 30.167C47.086 29.277 46.394 29.27 45.377 30.146ZM17.81 31.35C16.885 33.823 16.584 35.18 16.368 37.854C15.846 44.307 18.913 49.938 23.768 51.437C25.783 52.06 27.362 52.166 28.74 51.77C29.372 51.59 29.223 51.513 27.875 51.329C22.413 50.583 18.835 47.093 17.735 41.44C17.284 39.117 17.503 33.962 18.154 31.596C18.754 29.412 18.582 29.288 17.81 31.35ZM22.962 30.568C22.206 31.528 22.132 33.281 22.78 34.833C23.455 36.446 24.385 36.178 25.458 34.06C25.92 33.148 26.298 32.024 26.298 31.563C26.298 29.739 24.124 29.091 22.962 30.568ZM56.07 32.81C55.176 33.798 55.623 35.483 57.14 36.847C58.224 37.82 63.27 40.148 64.29 40.145C64.45 40.145 64.159 39.698 63.644 39.152C63.13 38.606 62.01 37.109 61.154 35.825C58.817 32.317 57.32 31.429 56.07 32.81ZM51.847 32.709C51.327 33.229 51.677 35.799 52.505 37.552C54.178 41.086 57.779 43.09 61.101 42.334L62.17 42.091L60.715 41.886C56.945 41.354 54.325 38.809 53.158 34.544C52.674 32.776 52.301 32.254 51.847 32.709ZM123.199 33.556C119.416 34.419 115.46 37.093 112.866 40.539C111.933 41.779 111.169 42.849 111.168 42.919C111.167 42.988 112.314 41.945 113.718 40.602C116.513 37.925 119.408 36.182 122.314 35.424C127.352 34.112 134.071 35.584 139.604 39.211L141.547 40.484L139.867 38.915C135.142 34.499 128.467 32.354 123.199 33.556ZM79.284 34.717C78.224 36.231 78.946 38.759 80.958 40.577C82.168 41.67 87.278 44.293 87.59 43.981C87.687 43.884 87.479 43.496 87.127 43.119C86.775 42.742 85.717 40.993 84.775 39.232C82.208 34.434 80.478 33.012 79.284 34.717ZM102.809 34.777C101.291 35.338 99.441 37.147 98.575 38.914C98.042 40.002 97.901 40.816 97.912 42.739C97.928 45.618 98.77 47.803 100.678 49.923C101.978 51.368 104.651 53.577 105.098 53.577C105.254 53.577 104.617 52.649 103.68 51.517C102.744 50.383 101.539 48.565 101.002 47.477C100.167 45.784 100.026 45.17 100.026 43.203C100.026 40.225 100.863 38.409 102.881 37.008C104.162 36.118 104.516 36.022 106.513 36.022C107.73 36.022 108.726 35.912 108.727 35.778C108.727 35.403 106.73 34.653 105.287 34.486C104.544 34.401 103.492 34.525 102.809 34.777ZM13.652 36.77C12.287 42.773 13.646 48.604 17.246 52.194C19.363 54.304 21.22 55.162 23.964 55.299L26.145 55.409L23.965 54.691C21.195 53.781 20.051 53.066 18.162 51.065C15.212 47.942 13.847 43.36 14.207 37.79C14.319 36.063 14.348 34.65 14.273 34.65C14.197 34.65 13.917 35.604 13.652 36.77ZM20.068 37.327C19.655 42.777 21.624 46.497 25.68 47.927C26.408 48.184 27.071 48.327 27.153 48.245C27.236 48.163 26.741 47.485 26.055 46.741C24.353 44.895 20.802 37.248 20.802 35.43C20.802 35.188 20.682 34.917 20.536 34.826C20.39 34.736 20.179 35.861 20.068 37.327ZM32.42 35.064C32.372 35.837 34.398 39.305 35.455 40.26C36.895 41.561 38.565 41.792 39.115 40.766C39.487 40.071 38.861 39.554 36.888 38.928C35.724 38.558 33.893 36.999 32.942 35.565C32.664 35.145 32.428 34.92 32.42 35.064ZM124.348 36.969C123.455 37.594 123.585 38.644 124.618 39.137C125.186 39.409 126.495 39.447 129.502 39.281L133.609 39.053L132.388 38.508C130.264 37.561 126.818 36.481 125.914 36.481C125.436 36.481 124.731 36.701 124.348 36.969ZM30.13 38.236C30.229 38.697 30.747 39.963 31.28 41.049C32.397 43.319 33.83 44.499 35.292 44.356C36.791 44.209 36.645 43.35 34.943 42.314C32.693 40.944 31.513 39.864 30.855 38.573C30.149 37.19 29.878 37.063 30.13 38.236ZM102.774 37.734C101.673 38.37 101.108 39.344 101.111 40.602C101.118 43.427 104.101 44.526 106.163 42.464C107.439 41.188 107.57 39.691 106.513 38.463C105.727 37.549 103.759 37.166 102.774 37.734ZM119.69 38.583C117.65 39.383 115.67 40.838 114.007 42.765C112.055 45.026 111.707 45.72 113.167 44.443C115.212 42.655 118.765 40.497 121.118 39.616C122.359 39.15 123.376 38.598 123.378 38.388C123.383 37.828 121.346 37.935 119.69 38.583ZM9.88001 40.474C8.44601 48.165 11.52 55.188 17.643 58.202C19.383 59.059 20.065 59.217 22.449 59.318C26.109 59.473 28.069 58.783 30.08 56.633C31.764 54.833 31.949 54.023 30.357 55.421C24.964 60.157 16.217 57.482 12.417 49.934C11.023 47.166 10.676 45.737 10.449 41.823L10.255 38.465L9.88001 40.474ZM38.31 43.64C37.101 44.166 36.767 45.112 37.432 46.126C38.057 47.08 39.063 47.471 40.893 47.471C42.583 47.471 47.058 46.802 47.058 46.55C47.058 46.265 42.129 43.886 40.799 43.528C39.328 43.133 39.491 43.126 38.309 43.64M141.699 44.394C141.699 44.811 145.596 48.382 147.025 49.274C148.783 50.374 150.483 50.528 151.269 49.66C152.401 48.409 151.573 46.837 149.408 46.131C147.213 45.416 141.699 44.173 141.699 44.394ZM103.417 44.901C102.875 46.314 103.768 48.573 105.697 50.665C106.405 51.434 107.035 52.013 107.097 51.951C107.158 51.889 107.017 51.371 106.784 50.8C106.55 50.228 106.196 48.809 105.998 47.645C105.8 46.482 105.504 45.28 105.34 44.974C104.974 44.291 103.67 44.241 103.417 44.901ZM128.114 46.223C127.219 46.426 127.228 46.436 128.521 46.653C130.696 47.019 132.56 48.19 135.047 50.753C137.98 53.773 138.72 54.4 137.842 53.119C137.497 52.615 136.759 51.339 136.202 50.284C134.294 46.662 131.773 45.396 128.114 46.223ZM6.19601 49.225C6.57301 52.419 7.05301 54.085 7.84001 54.934C8.71601 55.88 9.62301 55.932 10.226 55.072C10.839 54.197 10.436 53.151 8.71101 51.129C7.95501 50.244 7.06701 48.989 6.73701 48.342C6.40701 47.694 6.09501 47.165 6.04401 47.165C5.99401 47.165 6.06201 48.092 6.19601 49.225ZM123.229 48.223C122.054 48.647 121.058 48.994 121.015 48.995C120.973 48.995 120.939 49.099 120.939 49.225C120.939 49.351 121.524 49.489 122.237 49.53C122.95 49.572 124.462 49.827 125.595 50.098C127.944 50.658 129.051 50.502 129.346 49.57C129.652 48.607 128.681 47.839 126.892 47.63C125.706 47.492 124.889 47.624 123.229 48.223ZM152.079 49.275C152.079 49.469 152.732 49.901 153.529 50.234C154.327 50.566 155.495 51.12 156.124 51.464C157.739 52.344 157.546 51.973 155.642 50.536C153.979 49.28 152.079 48.607 152.079 49.275ZM80.839 50.523C84.179 55.401 85.169 60.373 83.846 65.635C83.3 67.804 81.874 70.997 81.016 71.97C80.757 72.264 80.67 72.5 80.822 72.494C81.332 72.476 84.083 68.709 84.979 66.804C85.467 65.767 86.017 64.006 86.202 62.889C86.954 58.353 84.869 53.08 81.168 50.153L79.898 49.149L80.839 50.523ZM84.422 51.439C87.189 55.717 87.967 57.991 87.967 61.796C87.967 65.938 86.737 69.247 83.704 73.252C82.859 74.37 82.167 75.349 82.167 75.428C82.167 75.881 83.9 74.304 85.351 72.53C90.712 65.977 90.764 57.783 85.479 52.287C84.626 51.401 84.151 51.019 84.422 51.439ZM144.622 51.472C145.778 52.764 147.597 53.625 151.108 54.542C153.07 55.055 155.224 55.739 155.895 56.063L157.117 56.652L155.914 55.566C154.251 54.065 152.044 53.057 149.257 52.528C147.957 52.281 146.25 51.795 145.464 51.448L144.036 50.816L144.623 51.472M59.047 53.08C56.43 53.746 53.554 55.35 51.457 57.312C49.397 59.239 49.019 60.009 50.799 58.65C52.418 57.416 56.137 55.83 58.775 55.249C61.829 54.576 66.032 54.751 68.352 55.647C69.233 55.987 69.955 56.154 69.955 56.017C69.955 55.582 68.018 54.112 66.634 53.497C64.93 52.74 61.191 52.534 59.047 53.08ZM4.24301 55.714C3.48801 63.549 8.73701 70.461 15.785 70.914C18.206 71.069 20.389 70.518 21.718 69.417C22.265 68.964 22.323 68.837 21.921 68.967C20.558 69.407 17.967 69.499 16.088 69.172C13.267 68.681 11.024 67.617 9.18501 65.896C6.55801 63.44 5.44701 61.044 4.81501 56.477L4.43401 53.729L4.24301 55.714ZM145.848 55.079C146.865 56.822 149.151 58.871 151.801 60.415C153.214 61.238 154.815 62.241 155.361 62.645C156.622 63.575 156.666 63.035 155.478 61.193C154.139 59.115 153.028 58.242 150.225 57.065C148.81 56.471 147.115 55.556 146.458 55.032L145.265 54.08L145.848 55.08M37.528 55.57C37.072 55.822 36.349 56.624 35.922 57.353C35.2 58.586 33.519 63.041 33.776 63.041C33.839 63.041 35.285 61.691 36.989 60.041C39.705 57.411 40.074 56.931 39.985 56.149C39.905 55.451 39.716 55.24 39.12 55.185C38.7 55.145 37.984 55.318 37.528 55.57ZM10.118 56.219C10.118 56.871 12.164 58.819 13.504 59.441C14.076 59.706 15.024 60.015 15.612 60.125C16.609 60.314 16.57 60.265 15.039 59.4C14.136 58.89 12.734 57.852 11.923 57.093C10.293 55.568 10.117 55.483 10.117 56.219M143.27 56.919C143.665 57.666 145.989 60.345 148.433 62.872C150.877 65.4 153.298 68.017 153.813 68.689C154.895 70.104 156.353 72.889 156.353 73.546C156.353 73.793 156.467 74.066 156.606 74.152C157.046 74.423 156.404 70.842 155.733 69.275C154.665 66.782 152.911 64.79 149.093 61.734C147.096 60.134 144.807 58.091 144.006 57.194L142.551 55.561L143.27 56.919ZM121.183 56.609C118.215 57.558 114.889 59.904 113.252 62.202L112.574 63.155L114.024 62.156C116.209 60.654 119.944 58.875 122.052 58.333C125.762 57.38 128.906 57.862 131.905 59.843L133.56 60.937L132.795 59.928C132.375 59.373 131.376 58.474 130.576 57.93C127.776 56.025 124.464 55.56 121.183 56.609ZM47.988 58.972C46.562 61.735 43.893 64.522 41.338 65.917L39.273 67.043L40.735 66.853C44.851 66.319 48.051 63.42 48.902 59.454C49.442 56.934 49.126 56.767 47.988 58.972ZM9.03401 60.747C10.644 64.39 12.596 66.095 16.006 66.841C16.972 67.053 19.886 66.734 19.886 66.418C19.886 66.303 19.193 66.032 18.344 65.814C16.564 65.358 11.998 62.462 9.76401 60.371L8.23601 58.941L9.03401 60.747ZM29.809 59.945C29.473 60.055 28.451 60.538 27.539 61.017C26.4545 61.5781 25.2738 61.9296 24.059 62.053L22.239 62.218L23.389 62.808C25.807 64.049 29.326 63.793 31.169 62.243C32.274 61.313 32.336 60.8 31.419 60.158C30.687 59.645 30.71 59.648 29.809 59.945ZM123.179 60.275C122.816 60.431 122.435 60.825 122.332 61.149C122.194 61.585 121.647 61.841 120.244 62.129C117.986 62.59 117.08 63.173 119.107 62.859C119.863 62.743 120.809 62.526 121.21 62.378C121.787 62.165 122.03 62.238 122.372 62.728C122.704 63.202 123.145 63.346 124.259 63.346C125.915 63.346 128.823 62.576 129.45 61.972C130.464 60.996 124.96 59.505 123.18 60.274M143.167 62.274C143.533 62.737 145.61 65.022 147.785 67.351C151.946 71.808 153.613 74.42 154.189 77.39C154.414 78.555 154.464 78.625 154.518 77.848C154.743 74.571 153.672 71.699 151.26 69.115C149.485 67.214 142.226 61.077 143.167 62.274ZM57.623 63.921C57.213 64.082 57.664 64.259 59.175 64.529C61.825 65.003 64.015 65.999 65.647 67.474C67.141 68.823 67.314 68.301 65.976 66.482C64.669 64.704 62.435 63.645 60.049 63.672C59.033 63.685 57.941 63.796 57.623 63.921ZM156.252 64.16C155.678 64.734 156.114 66.94 157.234 69.124C157.886 70.396 158.675 72.253 158.987 73.25L159.554 75.064L159.768 73.861C159.886 73.199 159.99 71.408 159.999 69.879C160.025 65.738 159.252 63.957 157.426 63.957C156.892 63.957 156.363 64.048 156.252 64.16ZM53.855 66.476C52.552 67.81 51.768 69.308 52.224 69.59C52.366 69.678 52.662 69.314 52.883 68.783C53.103 68.251 53.736 67.223 54.29 66.497C54.844 65.772 55.257 65.178 55.21 65.178C55.162 65.178 54.552 65.762 53.855 66.476ZM139.562 65.287C139.562 65.343 140.724 66.099 142.144 66.967C145.471 68.999 147.964 71.325 149.434 73.766C150.079 74.836 150.512 75.367 150.398 74.947C149.652 72.201 147.376 69.305 144.709 67.71C143.115 66.756 139.562 65.084 139.562 65.287ZM58.098 66.54C58.209 66.657 58.758 66.996 59.319 67.294C60.822 68.092 61.712 69.569 61.712 71.264C61.712 72.688 61.544 73.104 59.479 76.8C58.068 79.326 57.612 81.55 58.063 83.717C58.512 85.879 58.807 85.929 58.833 83.846C58.859 81.793 59.583 80.031 61.779 76.681C63.053 74.737 63.37 73.987 63.481 72.65C63.556 71.746 63.531 70.668 63.428 70.253C63.183 69.276 61.858 67.71 60.836 67.188C59.924 66.722 57.79 66.218 58.098 66.54ZM55.628 69.34C54.752 70.455 54.835 71.475 55.888 72.529C56.894 73.535 57.396 73.616 58.637 72.974C59.603 72.474 59.88 71.956 59.88 70.648C59.88 68.594 56.93 67.687 55.628 69.341M119.481 69.928C118.637 70.518 118.616 71.274 119.421 72.138C120.375 73.162 121.351 73.266 122.916 72.509C123.676 72.141 124.297 71.736 124.297 71.609C124.297 71.173 123.116 70.309 121.952 69.895C120.447 69.358 120.291 69.36 119.481 69.928ZM115.124 70.173C113.257 70.676 111.84 71.593 110.174 73.376C108.944 74.689 107.506 76.962 107.506 77.59C107.506 77.714 107.926 77.245 108.439 76.548C109.421 75.211 112.4 72.818 114.215 71.908C114.807 71.61 116.012 71.198 116.894 70.99C118.613 70.585 118.912 70.245 117.81 69.95C116.927 69.714 116.785 69.725 115.124 70.173ZM7.98701 70.368C7.98601 71.066 9.34301 73.824 9.92301 74.304C10.729 74.97 10.861 74.466 10.145 73.46C9.6469 72.7359 9.17818 71.9919 8.74001 71.23C8.32601 70.505 7.98601 70.117 7.98601 70.37M47.076 71.205C45.77 72.79 45.103 74.66 45.358 76.021C45.608 77.351 46.494 78.307 47.479 78.307C48.379 78.307 48.6 77.6 48.255 75.816C47.905 74.004 47.912 71.79 48.27 70.846C48.7 69.718 48.171 69.876 47.076 71.205ZM50.585 71.048C49.982 71.908 49.974 74.033 50.568 75.454C51.146 76.837 53.614 80.317 54.168 80.53C54.518 80.665 54.52 80.443 54.178 79.126C53.956 78.266 53.773 76.421 53.773 75.025C53.773 71.725 53.249 70.369 51.974 70.369C51.376 70.369 50.896 70.603 50.585 71.048ZM128.571 72.34C128.991 72.794 130.089 74.415 131.013 75.943C131.936 77.471 133.053 78.986 133.495 79.309C134.972 80.392 136.267 79.209 135.77 77.231C135.334 75.493 131.578 72.629 128.57 71.74L127.807 71.515L128.571 72.34ZM23.549 72.51C20.794 72.887 18.502 74.102 17.403 75.769C16.731 76.787 16.65 78.477 17.262 78.712C17.745 78.897 18.208 78.445 19.723 76.314C20.928 74.619 22.848 73.219 24.351 72.937C24.921 72.83 25.463 72.62 25.555 72.472C25.647 72.322 25.611 72.219 25.475 72.241C25.339 72.263 24.473 72.383 23.549 72.51ZM137.068 75.254C139.05 78.961 139.713 81.546 139.692 85.481C139.679 87.824 139.522 89.231 139.172 90.137C138.507 91.863 138.763 91.785 139.672 89.984C141.27 86.824 141.435 82.835 140.116 79.284C139.358 77.241 137.848 74.804 136.676 73.727C135.901 73.017 135.928 73.123 137.068 75.254ZM27.366 74.167C24.729 75.014 22.253 76.253 21.426 77.14C20.802 77.81 20.639 78.746 20.988 79.655C21.24 80.312 22.878 80.275 23.921 79.587C25.035 78.852 30.293 73.413 29.852 73.451C29.66 73.468 28.542 73.791 27.366 74.167ZM114.685 73.871C113.466 74.315 112.696 75.041 112.696 75.744C112.696 77.286 113.992 77.891 115.834 77.209C116.543 76.946 118.016 76.407 119.107 76.009C120.199 75.613 120.917 75.281 120.704 75.271C120.49 75.261 119.804 74.918 119.177 74.51C117.68 73.533 116.193 73.322 114.685 73.871ZM33.32 73.938C32.747 74.143 32.098 74.942 32.098 75.442C32.098 76.815 34.471 77.124 38.922 76.331C41.644 75.846 42.007 75.664 40.759 75.409C40.277 75.311 38.689 74.893 37.229 74.479C34.509 73.709 34.115 73.654 33.319 73.939M123.425 74.209C121.651 74.955 122.315 76.813 124.54 77.332C125.162 77.478 126.564 77.812 127.656 78.075C128.747 78.338 129.694 78.501 129.76 78.436C130.03 78.174 128.328 76.112 127.045 75.149C125.347 73.875 124.65 73.694 123.425 74.209ZM10.632 75.673C10.404 76.267 10.938 78.449 11.655 79.854C12.721 81.944 14.764 81.848 14.945 79.702C15.062 78.319 14.5 77.388 12.808 76.162C11.425 75.161 10.876 75.037 10.632 75.673ZM141.692 77.085C143.044 80.057 143.635 82.691 143.642 85.785C143.654 90.246 142.282 93.105 138.663 96.163C137.671 97.001 136.902 97.728 136.953 97.779C137.003 97.83 137.955 97.508 139.067 97.063C144.214 95.003 146.93 89.563 145.695 83.789C145.215 81.55 143.418 77.982 141.969 76.394L140.789 75.1L141.691 77.085M80.341 76.162C79.634 76.87 79.24 77.74 78.655 79.882L78.267 81.307L80.14 79.305C81.438 77.917 82.014 77.058 82.014 76.51C82.014 75.486 81.188 75.314 80.341 76.162ZM30.619 76.48C30.226 76.808 29.383 77.217 28.747 77.388C27.491 77.726 26.74 78.398 27.053 78.903C27.659 79.884 30.109 78.56 31.049 76.743C31.583 75.71 31.56 75.696 30.619 76.48ZM110.403 77.18C109.443 78.14 108.549 80.374 108.814 81.152C108.881 81.35 109.219 80.962 109.564 80.29C109.91 79.618 110.619 78.535 111.14 77.882C112.686 75.942 112.151 75.433 110.403 77.18ZM1.89001 76.5C1.84301 77.07 3.32701 80.932 4.35401 82.913C6.73401 87.503 10.394 91.123 14.85 93.291C18.238 94.939 21.268 95.51 25.675 95.331C29.398 95.179 31.586 94.583 34.007 93.061C35.283 92.261 35.555 91.551 34.465 91.869C29.61 93.282 29.127 93.359 24.925 93.382C21.361 93.402 20.255 93.292 18.27 92.722C11.291 90.718 6.80401 86.66 3.23001 79.119C2.50001 77.58 1.89701 76.402 1.89001 76.5ZM43.075 78.477C42.5 79.169 43.06 80.517 44.069 80.871C45.662 81.431 46.56 79.457 45.159 78.476C44.296 77.871 43.577 77.872 43.075 78.477ZM114.665 78.882C113.159 79.565 111.277 81.69 110.866 83.171C110.7 83.769 110.564 84.809 110.565 85.481L110.566 86.701L111.288 85.175C112.721 82.143 115.721 80.417 119.942 80.194C122.681 80.05 122.845 79.808 120.826 78.891C119.17 78.139 116.309 78.135 114.665 78.881M33.015 78.924C30.107 79.265 28.636 79.732 27.855 80.564C27.292 81.164 27.225 81.416 27.493 81.92C28.233 83.303 29.596 83.078 33.729 80.891C35.099 80.166 36.77 79.468 37.442 79.341C38.562 79.13 38.6 79.093 37.9 78.891C36.945 78.617 35.557 78.626 33.015 78.924ZM47.669 79.304C47.669 80.006 49.535 81.974 50.829 82.637C51.694 83.081 52.822 83.321 54.386 83.395C56.916 83.515 57.005 83.615 53.015 81.847C51.841 81.327 50.294 80.454 49.577 79.909C48.183 78.846 47.669 78.683 47.669 79.304ZM130.099 79.368C130.099 79.828 131.503 80.362 131.836 80.028C132.136 79.728 131.288 78.916 130.672 78.916C130.357 78.916 130.099 79.12 130.099 79.368ZM146.694 80.914C149.504 86.658 148.845 91.749 144.817 95.43C142.839 97.238 143.131 97.356 145.557 95.728C148.535 93.731 150.162 90.605 149.844 87.497C149.668 85.77 147.879 81.762 146.561 80.137C146.037 79.492 146.058 79.613 146.694 80.914ZM105.684 80.921C105.847 81.351 105.981 82.588 105.981 83.668C105.981 85.233 106.107 85.758 106.598 86.25C107.079 86.731 107.345 86.799 107.798 86.556C109.174 85.82 108.925 83.88 107.17 81.659C105.846 79.985 105.207 79.667 105.684 80.921ZM123.535 80.341C122.605 80.587 122.325 80.973 122.727 81.458C122.974 81.754 124.03 81.934 126.129 82.035C128.717 82.159 129.448 82.317 131.009 83.092C132.019 83.592 132.847 83.89 132.847 83.752C132.847 83.291 129.962 81.379 128.573 80.919C126.998 80.399 124.432 80.104 123.535 80.341ZM134.659 81.073C133.923 81.809 134.022 82.626 135.163 85.205C135.563 86.109 136.056 87.502 136.259 88.301L136.629 89.754L137.025 88.399C138.035 84.941 137.798 81.437 136.505 80.746C135.688 80.308 135.367 80.366 134.659 81.073ZM17.65 81.548C17.906 81.939 18.863 82.624 19.776 83.071C21.158 83.748 21.695 83.853 22.981 83.701C24.623 83.506 26.31 82.7 26.544 81.996C26.655 81.663 26.463 81.617 25.653 81.783C22.598 82.411 20.964 82.363 19.058 81.593L17.184 80.837L17.65 81.548ZM154.828 81.854C154.828 82.014 155.235 83.446 155.732 85.034C156.686 88.083 158.045 90.562 159.058 91.104C159.518 91.35 159.103 90.254 157.366 86.624C155.003 81.684 154.828 81.354 154.828 81.854ZM14.087 82.243C14.087 82.779 16.227 84.383 17.361 84.699C19.246 85.222 19.526 85.051 18.004 84.304C17.219 83.919 16.095 83.237 15.505 82.787C14.36 81.913 14.087 81.809 14.087 82.243ZM116.513 83.326C115.051 84.035 113.236 85.306 113.666 85.321C113.779 85.324 114.901 84.915 116.16 84.411C117.418 83.908 118.699 83.49 119.007 83.482C119.314 83.474 119.978 83.28 120.482 83.049C121.393 82.632 121.39 82.629 119.719 82.608C118.531 82.592 117.593 82.802 116.513 83.326ZM101.885 84.898C101.402 85.954 100.267 87.468 98.912 88.867C97.706 90.11 96.82 91.227 96.942 91.35C97.321 91.729 101.085 89.575 101.891 88.518C102.473 87.755 102.696 87.008 102.835 85.355C102.935 84.165 102.938 83.19 102.842 83.19C102.746 83.19 102.315 83.959 101.885 84.898ZM0.0740093 86.21C0.436009 90.42 2.52701 94.497 6.03601 97.839C9.96401 101.579 14.296 103.339 19.566 103.339C25.681 103.339 31.376 100.383 33.771 95.964L34.655 94.334L33.605 95.415C28.175 101.013 21.345 102.709 14.03 100.276C9.70101 98.836 5.33501 95.372 2.99501 91.519C1.86601 89.662 0.348009 85.739 0.348009 84.682C0.348009 84.385 0.240009 84.076 0.110009 83.995C-0.0209907 83.915 -0.0369907 84.911 0.0740093 86.21ZM2.94301 85.328C3.07301 85.748 3.74501 87.258 4.43501 88.686C6.03501 91.996 8.60101 94.792 10.035 94.792C10.724 94.792 11.046 94.62 11.185 94.182C11.518 93.134 11.048 92.379 9.25501 91.078C7.03301 89.468 5.47001 88.002 3.93301 86.091C3.05901 85.004 2.77301 84.784 2.94301 85.328ZM104.734 88.784C103.664 89.7747 102.571 90.7399 101.456 91.679C100.044 92.852 99.874 93.122 99.874 94.187C99.874 95.064 100.034 95.467 100.478 95.704C102.398 96.732 104.688 94.07 106.12 89.141C106.399 88.183 106.582 87.355 106.528 87.301C106.474 87.247 105.668 87.914 104.734 88.784ZM12.559 88.224C12.559 88.519 16.119 90.157 18.055 90.751C21.012 91.66 23.392 91.843 26.323 91.389L28.893 90.991L25.077 90.776C21.461 90.573 15.13 89.266 13.476 88.381C12.849 88.046 12.559 87.996 12.559 88.224ZM37.389 89.565C35.596 90.404 35.019 91.562 35.936 92.48C36.613 93.157 37.941 93.077 39.969 92.236C40.929 91.837 42.471 91.333 43.394 91.115L45.074 90.718L43.394 89.951C41.164 88.931 39.037 88.795 37.389 89.565ZM124.34 90.035C126.102 90.987 127.714 92.842 128.934 95.319C129.729 96.934 129.849 97.473 129.73 98.907C129.592 100.568 129.6 100.587 130.192 100.059C130.524 99.765 131.047 98.974 131.356 98.303C133.206 94.271 129.868 89.929 124.526 89.42L122.924 89.268L124.34 90.034M154.062 90.841C153.768 91.419 153.055 92.539 152.48 93.331C151.162 95.141 150.797 96.358 151.213 97.55C151.89 99.491 154.171 98.986 155.361 96.632C156.333 94.709 156.183 91.959 155.021 90.369C154.62 89.821 154.569 89.846 154.062 90.841ZM121.994 91.878C121.071 92.801 120.996 94.418 121.828 95.445C122.291 96.016 122.708 96.165 123.839 96.165C125.587 96.165 126.434 95.325 126.434 93.59C126.434 91.302 123.644 90.227 121.994 91.878ZM93.596 92.006C91.484 93.294 88.428 97.818 89.17 98.558C89.441 98.828 90.085 98.621 91.863 97.692C94.59 96.267 96.821 94.29 96.821 93.298C96.821 91.467 95.408 90.901 93.596 92.006ZM117.941 93.113C117.441 93.533 116.591 94.565 116.052 95.406C115.505 96.258 114.512 97.269 113.807 97.692C111.927 98.819 113.264 98.614 115.545 97.425C119.272 95.482 120.66 93.943 119.715 92.803C119.205 92.189 118.997 92.225 117.941 93.113ZM10.868 95.116C10.566 95.606 11.48 96.452 13.416 97.476C16.098 98.896 18.119 99.376 21.24 99.334L24.008 99.296L22.036 99.014C19.311 98.624 15.854 97.419 13.372 95.992C11.016 94.637 11.138 94.68 10.868 95.116ZM97.823 96.624C94.547 97.788 91.997 99.384 90.03 101.5C88.98 102.63 87.788 104.159 87.382 104.898L86.645 106.24L88.259 104.478C90.261 102.292 94.041 99.452 97.355 97.643C100.615 95.865 100.742 95.587 97.823 96.624ZM146.281 97.607C144.681 98.419 143.958 99.515 144.251 100.685C144.511 101.714 145.759 102.09 146.861 101.471C148.024 100.818 149.071 99.094 148.964 98.007C148.846 96.806 148.084 96.692 146.281 97.607ZM140.029 97.961C139.202 98.787 139.094 99.254 139.559 99.981C139.819 100.389 139.943 100.389 140.669 99.981C141.809 99.343 142.238 98.588 141.829 97.939C141.315 97.125 140.859 97.13 140.029 97.961ZM1.86301 99.048C3.29501 100.763 4.71601 101.81 5.61401 101.812C6.52801 101.814 6.20101 101.065 5.01201 100.432C4.38801 100.101 3.32201 99.411 2.64601 98.9C0.570009 97.331 0.450009 97.354 1.86301 99.048ZM47.952 98.568C46.105 99.065 43.96 100.348 42.934 101.567C41.881 102.818 42.326 102.971 44.223 102.01C49.19 99.493 55.341 99.707 60.491 102.575L61.865 103.34L60.589 102.173C57.061 98.946 51.953 97.49 47.952 98.568ZM119.481 99.236C118.516 99.911 118.595 101.082 119.641 101.616C120.558 102.082 128.964 102.507 128.696 102.073C128.388 101.576 124.703 99.713 123.097 99.245C121.021 98.638 120.336 98.638 119.481 99.236ZM88.645 99.271C88.289 99.414 86.579 102.424 86.853 102.424C86.954 102.424 88.218 100.654 88.975 99.454C89.237 99.037 89.233 99.034 88.645 99.271ZM113.79 99.33C113.624 99.599 117.615 100.043 117.877 99.784C117.957 99.707 117.819 99.515 117.572 99.359C117.004 99 114.008 98.978 113.79 99.33ZM150.904 99.589C150.879 99.793 150.034 100.84 149.026 101.918C148.019 102.995 147.195 103.961 147.195 104.066C147.195 104.17 147.657 104.256 148.222 104.256C150.205 104.256 151.433 102.474 151.082 100.106C151.009 99.618 150.929 99.386 150.904 99.589ZM136.187 100.783C135.477 101.509 134.717 102.185 133.914 102.807C132.717 103.707 132.711 103.721 133.609 103.515C136.146 102.932 138.34 101.215 137.926 100.137C137.662 99.447 137.346 99.566 136.187 100.783ZM31.335 101.668C30.831 101.903 28.968 102.766 27.195 103.585C24.511 104.825 23.904 105.234 23.579 106.017C23.07 107.246 23.359 108.072 24.458 108.527C26.378 109.322 28.938 107.357 31.565 103.072C32.783 101.086 32.769 101.001 31.335 101.668ZM46.473 102.338C44.598 103 42.703 104.992 41.896 107.15C41.096 109.289 41.222 110.073 42.094 108.377C43.029 106.557 45.012 104.449 47.101 103.054C49.033 101.764 48.811 101.512 46.473 102.338ZM7.99201 102.935C8.46201 104.284 10.512 106.814 11.382 107.12C12.394 107.476 13.781 107.129 13.781 106.52C13.781 105.5 13.046 104.81 10.639 103.569C9.73282 103.099 8.82381 102.634 7.91201 102.175C7.79001 102.119 7.82601 102.461 7.99201 102.935ZM139.228 102.733C136.848 103.136 135.678 104.338 136.085 105.961C136.448 107.405 138.683 107.77 140.74 106.721C142.01 106.072 144.142 103.883 144.142 103.226C144.142 102.514 141.87 102.286 139.228 102.733ZM50.568 103.458C49.336 103.995 48.796 104.702 49.038 105.462C49.308 106.316 50.568 106.275 53.576 105.314C54.895 104.894 56.656 104.534 57.49 104.514C59.293 104.474 59.104 104.181 56.848 103.52C54.858 102.938 51.832 102.907 50.568 103.458ZM39.05 104.87C38.105 105.713 37.047 106.862 36.7 107.425C36.056 108.467 35.853 109.75 36.331 109.75C36.967 109.75 38.287 108.345 39.011 106.896C39.445 106.031 40.134 104.877 40.544 104.331C41.621 102.896 41.024 103.11 39.05 104.87ZM15.002 104.687C15.002 105.063 18.784 107.262 19.737 107.441C20.887 107.656 22.634 107.421 22.634 107.051C22.634 106.936 21.404 106.548 19.902 106.189C18.4 105.83 16.73 105.317 16.192 105.049C15.154 104.53 15.002 104.484 15.002 104.687ZM131.319 105.447C132.043 105.852 134.035 106.137 134.691 105.93C135.959 105.527 135.192 105.171 133.075 105.18C131.713 105.186 131.037 105.289 131.319 105.447ZM6.48701 105.781C6.42901 106.954 7.41501 110.468 8.28501 112.191C10.435 116.452 14.091 118.971 18.409 119.169C21.8 119.324 23.522 118.68 25.798 116.405C26.786 115.417 27.507 114.521 27.401 114.415C27.294 114.308 26.831 114.581 26.371 115.021C25.246 116.098 22.527 117.283 20.614 117.531C14.61 118.311 9.32601 114.211 7.04101 107.002C6.74901 106.079 6.49901 105.528 6.48701 105.781ZM128.572 106.67C133.543 110.958 141.404 111.559 145.668 107.977C146.346 107.407 146.21 107.427 144.447 108.16C142.711 108.882 142.061 108.984 139.257 108.975C136.454 108.966 135.667 108.837 132.998 107.948C131.319 107.388 129.396 106.664 128.724 106.34L127.503 105.749L128.572 106.67ZM45.837 106.607C44.357 107.148 43.543 108.861 44.371 109.689C45.621 110.939 48.822 108.553 48.171 106.855C47.995 106.398 46.767 106.268 45.837 106.607ZM14.844 107.685C15.178 107.897 16.06 108.725 16.805 109.525C18.287 111.115 20.155 111.887 22.522 111.887C24.155 111.887 26.683 111.357 27.336 110.877C27.736 110.584 27.372 110.507 25.462 110.483C23.567 110.46 22.628 110.266 20.777 109.515C19.504 108.998 17.924 108.478 17.267 108.359C16.609 108.239 15.658 107.952 15.154 107.721C14.59 107.461 14.471 107.447 14.844 107.685ZM12.001 109.979C14.885 114.171 17.985 115.737 22.159 115.111C23.979 114.838 23.927 114.458 22.037 114.207C20.223 113.967 15.787 111.805 13.201 109.902C12.176 109.147 11.261 108.529 11.171 108.529C11.078 108.529 11.452 109.182 12.001 109.979ZM107.811 109.732C109.011 110.715 111.514 111.887 112.414 111.887C114 111.887 114.384 110.332 112.934 109.783C112.551 109.638 111.071 109.427 109.644 109.313L107.048 109.106L107.811 109.732ZM38.027 110.042C37.677 110.186 37.01 110.756 36.545 111.309C35.413 112.654 35.584 114.389 36.969 115.627C38.369 116.878 40.066 116.803 41.44 115.429C42.108 114.761 42.478 114.097 42.478 113.567C42.478 112.523 41.636 110.725 40.988 110.387C40.134 109.939 38.688 109.77 38.027 110.042ZM154.325 111.573C152.211 112.785 151.071 114.256 150.088 117.039C149.636 118.319 149.127 119.539 148.956 119.749C148.746 120.008 148.748 120.13 148.966 120.13C149.491 120.13 151.411 117.695 152.846 115.206C153.588 113.921 154.662 112.374 155.234 111.768C156.492 110.434 156.36 110.407 154.325 111.573ZM58.659 111.182C50.546 112.54 44.926 119.961 44.829 129.442C44.786 133.608 45.595 135.657 48.067 137.647C49.061 138.447 49.537 138.6 51.352 138.702C53.179 138.806 53.706 138.709 55.142 138.006C57.811 136.701 59.416 134.538 60.989 130.126C62.242 126.613 63.503 124.507 65.414 122.738C67.445 120.858 69.809 119.825 72.082 119.825H73.576L73.306 118.883C72.599 116.421 69.836 113.239 67.571 112.28C64.841 111.124 61.479 110.71 58.659 111.182ZM114.391 111.547C114.718 111.853 117.886 112.809 117.886 112.602C117.886 112.528 117.302 112.202 116.589 111.879C115.244 111.269 113.869 111.061 114.391 111.547ZM121.593 113.606C124.05 117.136 126.434 118.081 126.434 115.526C126.434 114.406 125.526 113.547 123.229 112.496C119.74 110.901 119.719 110.916 121.593 113.606ZM43.573 114.977C41.023 119.297 36.86 120.459 33.991 117.654C33.454 117.129 33.014 116.871 33.014 117.081C33.014 117.869 34.282 119.471 35.279 119.945C38.309 121.383 41.637 119.573 43.832 115.293C44.501 113.989 44.302 113.745 43.573 114.977ZM56.554 115.118C54.132 115.769 52.072 117.002 50.465 118.762C48.947 120.424 47.565 122.962 47.225 124.71C47.032 125.705 47.085 125.663 48.001 124.099C50.021 120.649 54.006 117.645 57.909 116.629C60.167 116.04 64.405 116.032 66.582 116.612C67.498 116.855 68.292 117.012 68.344 116.958C68.398 116.905 67.648 116.508 66.679 116.077C63.466 114.647 59.649 114.286 56.554 115.118ZM116.97 114.747C116.97 115.14 118.684 117.481 119.611 118.355C121.143 119.799 123.554 120.256 125.422 119.457L126.282 119.09L125.213 118.986C122.566 118.728 120.269 117.631 118.115 115.593C117.485 114.998 116.97 114.617 116.97 114.747ZM126.878 117.1C126.767 117.28 126.988 117.761 127.372 118.168C127.875 118.704 128.393 118.909 129.245 118.909C130.39 118.909 132.776 118.127 132.494 117.845C132.328 117.678 128.109 116.772 127.501 116.772C127.271 116.772 126.99 116.919 126.878 117.1ZM97.432 117.87C96.342 118.29 95.338 118.743 95.203 118.878C95.068 119.013 95.835 119.205 96.907 119.305C97.979 119.405 99.779 119.719 100.907 120.003C103.169 120.571 104.137 120.376 104.752 119.227C105.03 118.707 104.958 118.47 104.326 117.838C103.66 117.172 103.306 117.079 101.49 117.092C100.04 117.102 98.82 117.336 97.432 117.87ZM109.196 119.403C109.662 120.391 110.051 122.001 110.253 123.785C110.593 126.782 110.836 127.493 111.74 128.129C112.05 128.347 112.529 129.281 112.803 130.205C113.422 132.29 114.053 133.308 113.749 131.731C113.598 131.019 113.389 130.321 113.123 129.643C112.807 128.873 112.787 128.468 113.043 127.991C113.926 126.341 112.35 122.09 109.838 119.346L108.459 117.84L109.196 119.403ZM136.766 118.526C133.716 118.629 132.949 118.944 133.331 119.939C133.444 120.232 133.868 120.435 134.368 120.435C135.262 120.435 139.205 119.065 139.7 118.581C139.859 118.426 139.928 118.327 139.852 118.362C139.776 118.397 138.387 118.471 136.766 118.526ZM59.185 119.226C57.526 119.505 55.158 120.781 54.695 121.646C54.03 122.89 54.461 122.854 56.347 121.508C57.427 120.738 59.041 119.848 59.935 119.531C61.678 118.911 61.496 118.838 59.185 119.226ZM138.293 120.705C135.04 122.295 134.373 122.748 134.373 123.373C134.373 124.066 135.72 123.853 137.032 122.954C138.227 122.135 141.682 119.189 141.389 119.239C141.308 119.253 139.915 119.913 138.293 120.705ZM61.712 120.782C58.4 121.324 55.301 123.552 55.301 125.391C55.301 126.189 56.407 127.174 57.049 126.948C57.347 126.843 58.827 125.504 60.339 123.971C61.849 122.439 63.361 121.024 63.696 120.828C64.426 120.402 64.081 120.394 61.712 120.782ZM95.285 121.247C96.035 121.51 97.436 122.259 98.398 122.912C100.195 124.132 101.221 124.396 101.486 123.705C101.973 122.435 98.113 120.707 94.898 120.755C93.954 120.769 93.968 120.787 95.285 121.247ZM120.939 121.049C120.939 121.565 123.533 122.849 124.605 122.863C130.227 122.936 131.705 122.853 132.548 122.416C133.632 121.856 133.701 121.488 132.769 121.238C130.99 120.762 127.525 121.288 126.862 122.134C126.574 122.502 126.282 122.499 124.8 122.114C123.85 121.866 122.593 121.464 122.006 121.218C121.419 120.972 120.939 120.896 120.939 121.048M104.579 121.811C104.337 122.771 105.109 124.015 106.201 124.431C107.316 124.854 107.949 124.199 107.666 122.912C107.278 121.142 104.954 120.313 104.578 121.812M32.187 121.762C30.722 122.164 29.534 123.092 30.895 122.773C31.919 122.533 33.93 121.689 33.93 121.5C33.93 121.309 33.743 121.336 32.187 121.762ZM25.84 123.143C25 123.62 23.626 124.407 22.787 124.893L21.26 125.778L22.425 125.874C23.065 125.927 24.692 125.837 26.038 125.674C28.582 125.366 29.961 124.601 29.961 123.496C29.961 122.049 28.058 121.885 25.84 123.143ZM34.429 124.293C32.387 126.538 30.454 127.647 27.717 128.145L25.84 128.487L27.16 128.723C29.526 129.147 32.276 128.345 34.024 126.723C34.804 125.999 36.584 122.679 36.328 122.429C36.268 122.371 35.414 123.21 34.429 124.293ZM51.329 123.444C50.345 124.429 50.169 125.474 50.833 126.384C51.779 127.678 54.245 125.481 54.022 123.544C53.878 122.304 52.52 122.254 51.329 123.444ZM38.557 124.859C35.041 130.207 29.337 132.104 22.181 130.305C19.125 129.537 16.401 128.035 13.176 125.343L11.504 123.946L12.566 125.282C13.989 127.072 17.376 129.692 19.686 130.789C22.809 132.273 25.112 132.731 28.678 132.577C31.6 132.45 31.986 132.357 34.164 131.247C36.953 129.825 38.416 128.105 39.408 125.084C39.766 123.994 40.011 123.056 39.954 122.999C39.896 122.942 39.268 123.779 38.557 124.859ZM146.934 123.732C146.371 124.186 144.731 125.175 143.291 125.931C140.438 127.427 139.211 128.664 139.744 129.509C140.691 131.011 142.097 130.752 144.154 128.696C145.551 127.298 147.464 124.598 147.896 123.412C148.139 122.747 148.166 122.738 146.934 123.732ZM101.629 124.734C100.732 125.257 100.948 126.777 102.053 127.714C102.58 128.16 103.821 129.236 104.811 130.104C106.655 131.719 108.721 132.658 110.385 132.634L111.322 132.62L110.219 132.226C107.859 131.383 106.603 130.074 105.024 126.815C103.987 124.673 102.89 124 101.629 124.734ZM108.027 126.268C107.64 126.493 107.54 126.782 107.687 127.251C107.94 128.063 108.362 128.362 109.262 128.369C110.082 128.374 110.174 127.61 109.473 126.609C108.94 125.848 108.804 125.815 108.027 126.268ZM118.815 127.305C118.783 128.726 122.808 133.253 125.177 134.46C128.252 136.026 133.283 136.486 136.979 135.54C139.835 134.809 143.514 132.904 145.21 131.28C146.05 130.475 146.462 130.026 146.126 130.28C142.379 133.125 135.431 134.871 130.558 134.193C125.938 133.551 121.919 131.272 119.485 127.915C119.12 127.411 118.818 127.137 118.815 127.305ZM67.342 128.838C64.168 130.721 62.809 132.67 63.429 134.445C63.637 135.039 63.951 135.266 64.661 135.335C65.814 135.448 66.477 134.639 67.487 131.884C67.857 130.877 68.497 129.537 68.909 128.907C69.321 128.277 69.545 127.763 69.407 127.763C69.269 127.763 68.34 128.247 67.342 128.838ZM52.062 128.955C50.757 129.75 49.5 132.345 49.5 134.243C49.5 135.961 50.03 136.371 51.294 135.631C53.037 134.611 55.064 130.315 54.499 128.841C54.255 128.206 53.211 128.254 52.062 128.955ZM47.168 129.136C46.926 129.766 47.254 130.51 47.774 130.51C48.011 130.51 48.375 130.304 48.584 130.052C48.887 129.687 48.887 129.502 48.584 129.136C48.375 128.884 48.011 128.678 47.774 128.678C47.537 128.678 47.264 128.884 47.168 129.136ZM56.966 129.802C56.161 131.692 54.641 135.852 54.822 135.67C55.452 135.04 58.106 130.219 58.149 129.628C58.234 128.437 57.503 128.545 56.966 129.802ZM114.844 129.143C114.824 130.289 115.945 133.781 116.802 135.243C119.603 140.023 125.606 142.595 131.104 141.372C133.329 140.877 137.472 139.112 137.852 138.498C137.959 138.325 137.226 138.505 136.224 138.898C129.919 141.368 123.897 140.521 119.554 136.553C117.621 134.786 116.879 133.656 115.715 130.708C115.242 129.508 114.849 128.804 114.844 129.143ZM124.484 129.559C127.082 130.77 130.926 131.504 133.894 131.356C136.414 131.229 139.256 130.481 139.257 129.943C139.257 129.835 137.712 129.795 135.823 129.853C132.839 129.946 126.301 129.537 123.993 129.113C123.513 129.025 123.694 129.191 124.484 129.559ZM94.919 130.663C95.243 131.167 95.757 132.238 96.059 133.043C96.416 133.993 96.714 134.403 96.906 134.21C97.408 133.71 96.893 132.499 95.58 131.09C94.695 130.14 94.502 130.015 94.919 130.663ZM118.639 130.51C118.993 131.704 120.296 133.83 121.465 135.125C122.798 136.601 125.715 138.042 128.114 138.41C130.047 138.706 130.776 138.62 129.294 138.27C126.508 137.613 122.154 134.466 119.634 131.288C118.761 130.188 118.477 129.965 118.639 130.51ZM38.837 132.735C37.988 133.653 36.682 134.588 35.326 135.247C33.162 136.299 32.469 136.797 31.339 138.105L30.733 138.808L31.95 138.591C34.527 138.131 38.194 135.494 39.607 133.084C40.726 131.174 40.412 131.033 38.837 132.735ZM70 132.218C69.905 133.544 67.96 136.817 66.242 138.54C64.224 140.565 61.672 141.87 58.642 142.424C56.854 142.752 53.72 142.66 52.327 142.239C52.031 142.149 52.297 142.359 52.917 142.704C53.538 143.049 54.912 143.453 55.97 143.6C60.692 144.26 65.348 142.406 67.952 138.829C69.176 137.147 70.367 133.739 70.177 132.462C70.092 131.895 70.029 131.808 70 132.218ZM19.535 133.26C21.188 134.76 23.472 135.893 25.766 136.351C27.965 136.791 30.689 136.203 32.906 134.811C34.673 133.701 34.587 133.665 32.222 134.523C28.655 135.815 25.192 135.329 19.732 132.771L18.206 132.055L19.535 133.26ZM96.871 134.877C96.394 135.451 96.103 137.636 96.338 138.883C96.636 140.477 97.878 141.808 99.06 141.803C100.196 141.797 100.573 141.585 101.048 140.683C101.888 139.089 100.906 136.471 98.983 135.176C97.803 134.38 97.337 134.316 96.871 134.877ZM39.463 137.018C37.787 139.455 35.401 140.586 31.936 140.586C30.046 140.586 29.44 140.441 27.726 139.578C25.652 138.534 25.446 138.706 27.109 140.094C28.615 141.351 30.164 141.861 32.476 141.861C36.093 141.861 38.793 140.036 40.23 136.62C40.765 135.348 40.528 135.471 39.463 137.018ZM62.369 137.23C61.64 137.89 60.21 138.846 59.191 139.355C57.797 140.052 57.528 140.281 58.103 140.281C59.833 140.281 64.153 137.431 64.153 136.288C64.153 135.782 63.716 136.013 62.369 137.23ZM41.005 138.258C39.459 141.172 36.432 143.344 33.284 143.798C29.999 144.271 25.769 142.239 23.53 139.112C22.133 137.162 22.016 137.242 23.11 139.402C27.234 147.54 38.622 147.279 41.426 138.982C42.093 137.009 41.87 136.627 41.005 138.258ZM93.923 138.601C94.183 141.174 94.963 143.019 96.395 144.451C97.557 145.613 97.885 145.776 99.065 145.776C99.887 145.776 100.556 145.598 100.789 145.318C101.111 144.929 101.036 144.859 100.292 144.853C98.952 144.843 96.99 143.821 96.119 142.678C95.288 141.589 94.869 140.67 94.189 138.448L93.769 137.075L93.923 138.601ZM111.27 138.931C110.919 139.846 111.46 143.399 112.194 145.003C113.75 148.403 116.491 150.381 119.958 150.608C122.352 150.764 124.248 150.251 125.568 149.089L126.586 148.193L125.518 148.735C123.885 149.565 120.016 149.485 118.038 148.58C114.926 147.159 112.984 144.436 112.352 140.61C112.005 138.506 111.646 137.95 111.27 138.93M115.748 138.91C115.748 139.595 117.528 142.02 118.728 142.97C122.648 146.075 128.563 146.866 132.692 144.839C133.364 144.509 133.642 144.318 133.31 144.414C132.978 144.51 131.398 144.667 129.799 144.764C124.859 145.061 120.979 143.679 117.656 140.437C116.607 139.413 115.748 138.727 115.748 138.91ZM114.251 139.975C114.221 142.539 116.286 145.691 118.865 147.023C120.58 147.908 120.934 147.723 119.395 146.746C117.383 145.469 116.003 143.479 114.815 140.144L114.266 138.601L114.251 139.975ZM107.929 139.641C107.298 140.029 106.756 140.546 106.339 141.158C105.921 141.769 105.638 142.462 105.506 143.191C105.246 144.629 105.304 144.589 106.879 142.246C107.442 141.405 108.016 140.571 108.602 139.746C109.215 138.912 109.143 138.9 107.929 139.641ZM43.371 141.927C46.17 145.995 49.797 147.703 53.468 146.68L54.842 146.298L53.468 145.923C50.725 145.175 45.978 143 44.156 141.657C42.496 140.433 42.372 140.476 43.371 141.927ZM102.891 142.947C102.163 143.11 101.594 144.511 102.038 145.047C102.572 145.69 103.468 145.555 103.994 144.75C104.72 143.643 104.126 142.669 102.892 142.946M108.485 144.034C107.584 146.526 104.611 148.011 101.711 147.417C100.868 147.244 100.178 147.186 100.178 147.287C100.178 147.664 102.769 149.134 103.764 149.321C105.732 149.691 107.474 149.285 108.597 148.196C109.804 147.026 110.157 145.657 109.649 144.116C109.203 142.766 108.95 142.748 108.485 144.034ZM40.919 146.187C42.141 147.964 44.913 149.841 47.087 150.362C49.662 150.98 53.09 150.625 55.367 149.504C56.433 148.979 57.624 148.211 58.014 147.796L58.722 147.042L56.782 147.859C55.002 148.609 54.502 148.676 50.72 148.676C46.706 148.676 46.545 148.651 44.508 147.686C43.358 147.142 41.852 146.249 41.161 145.702L39.903 144.707L40.919 146.187ZM36.224 147.837C37.13 149.263 38.009 150.111 39.033 150.547C40.248 151.065 40.196 151.067 40.776 150.487C41.559 149.703 40.858 148.949 38.668 148.22C37.576 147.857 36.605 147.433 36.509 147.279C36.453 147.198 36.3793 147.13 36.2934 147.081C36.2075 147.032 36.1116 147.003 36.013 146.997C35.836 146.997 35.931 147.375 36.224 147.837ZM41.256 150.635C41.256 150.942 43.316 151.745 44.767 152.002C45.39 152.113 45.097 151.883 43.851 151.284C41.901 150.345 41.256 150.184 41.256 150.635Z" fill="white"/>
</svg>
